<svg width="400" height="300" viewBox="0 0 400 300" fill="none" xmlns="http://www.w3.org/2000/svg">
  <rect width="400" height="300" fill="#F3F4F6"/>
  <path d="M200 125C189.507 125 181 133.507 181 144C181 154.493 189.507 163 200 163C210.493 163 219 154.493 219 144C219 133.507 210.493 125 200 125Z" fill="#9CA3AF"/>
  <path d="M150 175C147.239 175 145 177.239 145 180V195C145 197.761 147.239 200 150 200H250C252.761 200 255 197.761 255 195V180C255 177.239 252.761 175 250 175H235.607L228.553 160.895C227.786 159.36 226.225 158.333 224.472 158.333H175.528C173.775 158.333 172.214 159.36 171.447 160.895L164.393 175H150Z" fill="#9CA3AF"/>
</svg>